<svg xmlns="http://www.w3.org/2000/svg" viewBox="0 0 140 140" width="140" height="140">
  <rect width="140" height="140" rx="8" fill="#fff" stroke="#e5e7eb" stroke-width="2"/>
  <rect x="15" y="15" width="35" height="35" rx="4" fill="#000"/>
  <rect x="20" y="20" width="25" height="25" rx="2" fill="#fff"/>
  <rect x="25" y="25" width="15" height="15" fill="#000"/>
  <rect x="90" y="15" width="35" height="35" rx="4" fill="#000"/>
  <rect x="95" y="20" width="25" height="25" rx="2" fill="#fff"/>
  <rect x="100" y="25" width="15" height="15" fill="#000"/>
  <rect x="15" y="90" width="35" height="35" rx="4" fill="#000"/>
  <rect x="20" y="95" width="25" height="25" rx="2" fill="#fff"/>
  <rect x="25" y="100" width="15" height="15" fill="#000"/>
  <rect x="55" y="15" width="8" height="8" fill="#000"/>
  <rect x="67" y="15" width="8" height="8" fill="#000"/>
  <rect x="55" y="27" width="8" height="8" fill="#000"/>
  <rect x="55" y="55" width="8" height="8" fill="#000"/>
  <rect x="67" y="55" width="8" height="8" fill="#000"/>
  <rect x="79" y="55" width="8" height="8" fill="#000"/>
  <rect x="55" y="67" width="8" height="8" fill="#000"/>
  <rect x="79" y="67" width="8" height="8" fill="#000"/>
  <rect x="91" y="67" width="8" height="8" fill="#000"/>
  <rect x="103" y="67" width="8" height="8" fill="#000"/>
  <rect x="67" y="79" width="8" height="8" fill="#000"/>
  <rect x="91" y="79" width="8" height="8" fill="#000"/>
  <rect x="67" y="91" width="8" height="8" fill="#000"/>
  <rect x="79" y="91" width="8" height="8" fill="#000"/>
  <rect x="91" y="91" width="8" height="8" fill="#000"/>
  <rect x="103" y="91" width="8" height="8" fill="#000"/>
  <rect x="67" y="103" width="8" height="8" fill="#000"/>
  <rect x="91" y="103" width="8" height="8" fill="#000"/>
  <rect x="115" y="91" width="8" height="8" fill="#000"/>
  <text x="70" y="138" text-anchor="middle" font-size="8" fill="#9ca3af" font-family="sans-serif">App Store</text>
</svg>
